<svg xmlns="http://www.w3.org/2000/svg" fill="none" viewBox="0 0 24 24" height="24" width="24"><path fill="#ffef5e" d="M22.517 22.733 12 6.052 1.483 22.733a0.5 0.5 0 0 0 0.423 0.767h20.188a0.5 0.5 0 0 0 0.423 -0.767Z" stroke-width="1"></path><path fill="#fff9bf" d="M12 6.052 1.483 22.733a0.5 0.5 0 0 0 0.423 0.767H12V6.052Z" stroke-width="1"></path><path fill="#ff808c" d="M6.674 14.5h10.652l-1.261 -2h-8.13l-1.261 2Z" stroke-width="1"></path><path fill="#ffbfc5" d="M12 12.5H7.935l-1.261 2H12v-2Z" stroke-width="1"></path><path stroke="#191919" stroke-linecap="round" stroke-linejoin="round" d="m8.5 0.5 14.017 22.233a0.499 0.499 0 0 1 -0.423 0.767H1.906a0.5 0.5 0 0 1 -0.423 -0.767L15.5 0.5" stroke-width="1"></path><path fill="#808080" stroke="#191919" stroke-linecap="round" stroke-linejoin="round" d="m8.5 23.5 3.053 -6.106a0.5 0.5 0 0 1 0.894 0L15.5 23.5h-7Z" stroke-width="1"></path><path stroke="#191919" stroke-linecap="round" stroke-linejoin="round" d="M7.935 12.5h8.13" stroke-width="1"></path><path stroke="#191919" stroke-linecap="round" stroke-linejoin="round" d="M6.674 14.5h10.652" stroke-width="1"></path></svg>