<svg xmlns="http://www.w3.org/2000/svg" fill="none" viewBox="0 0 24 24" height="24" width="24"><path fill="#836bfa" d="M23.5 22.5a1 1 0 0 1 -1 1h-21a1 1 0 0 1 -1 -1V5.414a1 1 0 0 1 0.293 -0.707L4.707 0.793A1 1 0 0 1 5.414 0.5H22.5a1 1 0 0 1 1 1v21z" stroke-width="1"></path><path fill="#c8befd" d="M23.207 0.793A1 1 0 0 0 22.5 0.5H5.414a1 1 0 0 0 -0.707 0.293L0.793 4.707a1 1 0 0 0 -0.293 0.707V22.5a1 1 0 0 0 0.293 0.707L23.207 0.793z" stroke-width="1"></path><path stroke="#191919" stroke-linecap="round" stroke-linejoin="round" d="M23.5 22.5a1 1 0 0 1 -1 1h-21a1 1 0 0 1 -1 -1V5.414a1 1 0 0 1 0.293 -0.707L4.707 0.793A1 1 0 0 1 5.414 0.5H22.5a1 1 0 0 1 1 1v21z" stroke-width="1"></path><path fill="#ffffff" stroke="#191919" stroke-linecap="round" stroke-linejoin="round" d="M4.5 12.5h15a1 1 0 0 1 1 1v10h-17v-10a1 1 0 0 1 1 -1z" stroke-width="1"></path><path fill="#e3e3e3" d="M5.5 0.5h13v6a1 1 0 0 1 -1 1h-11a1 1 0 0 1 -1 -1v-6z" stroke-width="1"></path><path fill="#ffffff" d="M6.5 7.5h2l7 -7h-10v6a1 1 0 0 0 1 1z" stroke-width="1"></path><path stroke="#191919" stroke-linecap="round" stroke-linejoin="round" d="M5.5 0.5h13v6a1 1 0 0 1 -1 1h-11a1 1 0 0 1 -1 -1v-6z" stroke-width="1"></path><path fill="#808080" stroke="#191919" stroke-linecap="round" stroke-linejoin="round" d="M16.5 2.5h-2v3h2v-3z" stroke-width="1"></path><path stroke="#191919" stroke-linecap="round" stroke-linejoin="round" d="M6.5 15.5H13m-6.5 3h11" stroke-width="1"></path></svg>