<svg xmlns="http://www.w3.org/2000/svg" fill="none" viewBox="0 0 24 24" height="24" width="24"><path fill="#808080" d="m21.489 10.214 0.032 0.023s2.646 -4.572 -0.6 -7.237c-2 0 -5.058 3.3 -5.058 3.3l0.022 0.016A14.152 14.152 0 0 0 8.1 6.3C8.083 6.285 5.037 3 3.042 3c-3.173 2.6 -0.729 7.012 -0.614 7.217a8.876 8.876 0 0 0 -1.395 5.743c0.241 3.126 2.847 6.54 5.982 6.54H16.9c3.135 0 5.742 -3.414 5.982 -6.54a8.857 8.857 0 0 0 -1.393 -5.746Z" stroke-width="1"></path><path fill="#b2b2b2" d="M1.354 12.556A19.383 19.383 0 0 1 11.959 9.5a19.38 19.38 0 0 1 10.606 3.053 8.309 8.309 0 0 0 -1.076 -2.342l0.032 0.023s2.646 -4.572 -0.6 -7.237c-2 0 -5.058 3.3 -5.058 3.3l0.022 0.015A14.162 14.162 0 0 0 8.1 6.3C8.083 6.285 5.037 3 3.042 3c-3.173 2.6 -0.729 7.012 -0.614 7.217a8.33 8.33 0 0 0 -1.074 2.34Z" stroke-width="1"></path><path stroke="#191919" stroke-linecap="round" stroke-linejoin="round" d="m21.489 10.214 0.032 0.023s2.646 -4.572 -0.6 -7.237c-2 0 -5.058 3.3 -5.058 3.3l0.022 0.016A14.152 14.152 0 0 0 8.1 6.3C8.083 6.285 5.037 3 3.042 3c-3.173 2.6 -0.729 7.012 -0.614 7.217a8.876 8.876 0 0 0 -1.395 5.743c0.241 3.126 2.847 6.54 5.982 6.54H16.9c3.135 0 5.742 -3.414 5.982 -6.54a8.857 8.857 0 0 0 -1.393 -5.746Z" stroke-width="1"></path><path fill="#ffdda1" stroke="#191919" stroke-linecap="round" stroke-linejoin="round" d="M19.459 17c0 -5.969 -4.126 -3.532 -7.5 -3.532 -3.374 0 -7.5 -2.375 -7.5 3.532a3.5 3.5 0 0 0 3.5 3.5h8a3.5 3.5 0 0 0 3.5 -3.5v0Z" stroke-width="1"></path><path fill="#c77f67" stroke="#191919" stroke-linecap="round" stroke-linejoin="round" d="M15.48 18.5c0.552 0 1 -0.672 1 -1.5s-0.448 -1.5 -1 -1.5 -1 0.672 -1 1.5 0.448 1.5 1 1.5Z" stroke-width="1"></path><path fill="#c77f67" stroke="#191919" stroke-linecap="round" stroke-linejoin="round" d="M8.48 18.5c0.552 0 1 -0.672 1 -1.5s-0.448 -1.5 -1 -1.5 -1 0.672 -1 1.5 0.448 1.5 1 1.5Z" stroke-width="1"></path></svg>