<svg xmlns="http://www.w3.org/2000/svg" fill="none" viewBox="0 0 24 24" height="24" width="24"><path fill="#66e1ff" stroke="#191919" stroke-linecap="round" stroke-linejoin="round" d="M14.5 5a0.5 0.5 0 0 1 -0.5 0.5h-4a0.5 0.5 0 0 1 -0.5 -0.5V1a0.5 0.5 0 0 1 0.5 -0.5h1.793a0.5 0.5 0 0 1 0.353 0.146l2.208 2.208a0.5 0.5 0 0 1 0.146 0.353V5Z" stroke-width="1"></path><path fill="#c2f3ff" stroke="#191919" stroke-linecap="round" stroke-linejoin="round" d="M9.5 15v2.5a9 9 0 0 1 -9 -9V8a0.5 0.5 0 0 1 0.5 -0.5h2.5l6 7.5Z" stroke-width="1"></path><path fill="#ffbfc5" stroke="#191919" stroke-linecap="round" stroke-linejoin="round" d="M9.5 7.5V15l-6 -7.5h6Z" stroke-width="1"></path><path fill="#78eb7b" d="M14.5 7.5h-5v10h5v-10Z" stroke-width="1"></path><path fill="#c9f7ca" d="M12 7.5H9.5v10H12v-10Z" stroke-width="1"></path><path stroke="#191919" stroke-linecap="round" stroke-linejoin="round" d="M14.5 7.5h-5v10h5v-10Z" stroke-width="1"></path><path fill="#ff808c" stroke="#191919" stroke-linecap="round" stroke-linejoin="round" d="m20.5 7.5 -6 7.5V7.5h6Z" stroke-width="1"></path><path fill="#66e1ff" stroke="#191919" stroke-linecap="round" stroke-linejoin="round" d="M23.5 8v0.5a9 9 0 0 1 -9 9V15l6 -7.5H23a0.5 0.5 0 0 1 0.5 0.5Z" stroke-width="1"></path><path fill="#66e1ff" stroke="#191919" stroke-linecap="round" stroke-linejoin="round" d="M9.354 19.646a0.5 0.5 0 0 1 0.353 -0.146h4.586a0.5 0.5 0 0 1 0.353 0.146L16.5 21.5v1h-9v-1l1.854 -1.854Z" stroke-width="1"></path><path stroke="#191919" stroke-linecap="round" stroke-linejoin="round" d="M7.5 22.5v1" stroke-width="1"></path><path stroke="#191919" stroke-linecap="round" stroke-linejoin="round" d="M10.5 22.5v1" stroke-width="1"></path><path stroke="#191919" stroke-linecap="round" stroke-linejoin="round" d="M13.5 22.5v1" stroke-width="1"></path><path stroke="#191919" stroke-linecap="round" stroke-linejoin="round" d="M16.5 22.5v1" stroke-width="1"></path><path stroke="#191919" stroke-linecap="round" stroke-linejoin="round" d="M9.5 2.5h2" stroke-width="1"></path><path fill="#ffef5e" stroke="#191919" stroke-linecap="round" stroke-linejoin="round" d="M9.5 1.5H7.236a2 2 0 0 0 -1.789 1.106L4.5 4.5h5v-3Z" stroke-width="1"></path><path stroke="#191919" stroke-linecap="round" stroke-linejoin="round" d="m6.422 16.957 0.684 -1.879" stroke-width="1"></path><path stroke="#191919" stroke-linecap="round" stroke-linejoin="round" d="m0.637 10.063 1.969 -0.347" stroke-width="1"></path><path stroke="#191919" stroke-linecap="round" stroke-linejoin="round" d="M2.606 14.286 4.138 13" stroke-width="1"></path><path stroke="#191919" stroke-linecap="round" stroke-linejoin="round" d="M21.394 14.286 19.862 13" stroke-width="1"></path><path stroke="#191919" stroke-linecap="round" stroke-linejoin="round" d="m17.578 16.957 -0.684 -1.879" stroke-width="1"></path><path stroke="#191919" stroke-linecap="round" stroke-linejoin="round" d="m23.363 10.063 -1.969 -0.347" stroke-width="1"></path></svg>