<svg xmlns="http://www.w3.org/2000/svg" fill="none" viewBox="0 0 24 24" height="24" width="24"><path fill="#ffbc44" d="M15.5 4v12L14 14.5l-2 2 -2 -2L8.5 16V4a3.5 3.5 0 1 1 7 0Z" stroke-width="1"></path><path fill="#ffdda1" d="M8.5 4v12l1.5 -1.5 2 2V0.5A3.5 3.5 0 0 0 8.5 4Z" stroke-width="1"></path><path fill="#66e1ff" stroke="#191919" stroke-linecap="round" stroke-linejoin="round" d="M15.5 16v2.5h-7V16l1.5 -1.5 2 2 2 -2 1.5 1.5Z" stroke-width="1"></path><path fill="#ff808c" stroke="#191919" stroke-linecap="round" stroke-linejoin="round" d="M10.5 18.5h-2v3h2v-3Z" stroke-width="1"></path><path fill="#ff808c" stroke="#191919" stroke-linecap="round" stroke-linejoin="round" d="M15.5 18.5h-2v3h2v-3Z" stroke-width="1"></path><path fill="#ff808c" stroke="#191919" stroke-linecap="round" stroke-linejoin="round" d="M15.5 21.5V23a0.5 0.5 0 0 1 -0.5 0.5H9a0.5 0.5 0 0 1 -0.5 -0.5v-1.5h7Z" stroke-width="1"></path><path stroke="#191919" stroke-linecap="round" stroke-linejoin="round" d="M15.5 4v12L14 14.5l-2 2 -2 -2L8.5 16V4a3.5 3.5 0 1 1 7 0Z" stroke-width="1"></path><path fill="#ff808c" stroke="#191919" stroke-linecap="round" stroke-linejoin="round" d="M14.49 1.55 12 3 9.51 1.55a3.478 3.478 0 0 1 4.98 0v0Z" stroke-width="1"></path><path fill="#ffbc44" stroke="#191919" stroke-linecap="round" stroke-linejoin="round" d="M15.5 12.5h2a3 3 0 0 0 3 -3v0a3 3 0 0 0 2.94 -2.4 0.501 0.501 0 0 0 -0.49 -0.6H15.5v6Z" stroke-width="1"></path><path fill="#ffbc44" stroke="#191919" stroke-linecap="round" stroke-linejoin="round" d="M8.5 12.5h-2a3 3 0 0 1 -3 -3A3 3 0 0 1 0.56 7.1a0.5 0.5 0 0 1 0.49 -0.6H8.5v6Z" stroke-width="1"></path><path fill="#ffef5e" stroke="#191919" stroke-linecap="round" stroke-linejoin="round" d="M13.5 18.5h-3v3h3v-3Z" stroke-width="1"></path><path fill="#ffef5e" stroke="#191919" stroke-linecap="round" stroke-linejoin="round" d="m8.5 8.5 3.363 -0.961a0.51 0.51 0 0 1 0.274 0L15.5 8.5l-3.209 2.292a0.5 0.5 0 0 1 -0.582 0L8.5 8.5Z" stroke-width="1"></path><path stroke="#191919" stroke-linecap="round" stroke-linejoin="round" d="M10.5 4.5v1" stroke-width="1"></path><path stroke="#191919" stroke-linecap="round" stroke-linejoin="round" d="M13.5 4.5v1" stroke-width="1"></path></svg>