<svg xmlns="http://www.w3.org/2000/svg" fill="none" viewBox="0 0 24 24" height="24" width="24"><path fill="#66e1ff" d="M6.5 9.5h-5v13h5v-13Z" stroke-width="1"></path><path fill="#66e1ff" d="M15.5 13.5a2 2 0 0 0 -2 2v7h-5v-13h5v1.485a6.307 6.307 0 0 1 3.99 -1.495c2.962 0 5.01 2.2 5.01 6.355V22.5h-5v-7a2 2 0 0 0 -2 -2Z" stroke-width="1"></path><path fill="#66e1ff" d="M4 7.5a2.5 2.5 0 1 0 0 -5 2.5 2.5 0 0 0 0 5Z" stroke-width="1"></path><path fill="#c2f3ff" d="M6.5 9.5h-5v2.015h5V9.5Z" stroke-width="1"></path><path fill="#c2f3ff" d="M17.49 9.49a6.309 6.309 0 0 0 -3.99 1.494V9.5h-5v2.015h3.515A1.485 1.485 0 0 1 13.5 13a6.307 6.307 0 0 1 3.99 -1.495c2.962 0 5.01 2.195 5.01 6.355v-2.015c0 -4.16 -2.048 -6.355 -5.01 -6.355Z" stroke-width="1"></path><path fill="#c2f3ff" d="M4 4.515a2.5 2.5 0 0 1 2.285 1.492 2.5 2.5 0 1 0 -4.57 0A2.5 2.5 0 0 1 4 4.515Z" stroke-width="1"></path><path stroke="#191919" stroke-linecap="round" stroke-linejoin="round" d="M6.5 22.5h-5v-13h5v13Zm9 -9a2 2 0 0 0 -2 2v7h-5v-13h5v1.485a6.307 6.307 0 0 1 3.99 -1.495c2.962 0 5.01 2.2 5.01 6.355V22.5h-5v-7a2 2 0 0 0 -2 -2v0ZM6.5 5a2.5 2.5 0 1 1 -5 0 2.5 2.5 0 0 1 5 0Z" stroke-width="1"></path></svg>