<svg xmlns="http://www.w3.org/2000/svg" fill="none" viewBox="0 0 24 24" height="24" width="24"><path fill="#fff9bf" d="M18.414 0.58a11.5 11.5 0 1 0 0 22.842c-9.098 -4.405 -9.079 -18.449 0 -22.842Z" stroke-width="1"></path><path fill="#ffef5e" d="M8.532 12A11.5 11.5 0 0 1 18.3 0.644c0.039 -0.019 0.071 -0.045 0.111 -0.064a11.5 11.5 0 1 0 0 22.842c-0.042 -0.02 -0.076 -0.047 -0.117 -0.068A11.492 11.492 0 0 1 8.532 12Z" stroke-width="1"></path><path stroke="#191919" stroke-linecap="round" stroke-linejoin="round" d="M18.414 0.58a11.5 11.5 0 1 0 0 22.842c-9.098 -4.405 -9.079 -18.449 0 -22.842Z" stroke-width="1"></path></svg>