<svg xmlns="http://www.w3.org/2000/svg" fill="none" viewBox="0 0 24 24" height="24" width="24"><path fill="#ffffff" d="M18.5 2.5a1 1 0 0 1 1 1v19a1 1 0 0 1 -1 1h-17a1 1 0 0 1 -1 -1v-19a1 1 0 0 1 1 -1h17Z" stroke-width="1"></path><path fill="#e4f1f5" d="M19.5 8.679a2.053 2.053 0 0 1 -1.831 0.348l0.855 -2.349c-0.948 -0.218 -7.517 2.714 -6.083 6.967l-5.152 2.4a0.5 0.5 0 0 0 0.422 0.906l5.18 -2.415c0.926 1.177 3.186 1.612 6.609 0.2V8.679Z" stroke-width="1"></path><path fill="#ffbc44" d="M14.5 3.5c-1 0.124 -6.514 5.488 -3 9 1.228 1.229 3.938 1 7.243 -2.3S23.5 0.5 23.5 0.5a27.1 27.1 0 0 0 -6.21 1.762S16.5 6 14.5 6V3.5Z" stroke-width="1"></path><path fill="#ffe4b4" d="M23.5 0.5a27.1 27.1 0 0 0 -6.21 1.762S16.5 6 14.5 6V3.5c-1 0.124 -6.514 5.488 -3 9l12 -12Z" stroke-width="1"></path><path stroke="#191919" stroke-linecap="round" stroke-linejoin="round" d="M14.5 3.5c-1 0.124 -6.514 5.488 -3 9 1.228 1.229 3.938 1 7.243 -2.3S23.5 0.5 23.5 0.5a27.1 27.1 0 0 0 -6.21 1.762S16.5 6 14.5 6V3.5Z" stroke-width="1"></path><path stroke="#191919" stroke-linecap="round" stroke-linejoin="round" d="M19.5 13v9.5a1 1 0 0 1 -1 1h-17a1 1 0 0 1 -1 -1v-19a1 1 0 0 1 1 -1H12" stroke-width="1"></path><path stroke="#191919" stroke-linecap="round" stroke-linejoin="round" d="m7.5 16.5 9 -9" stroke-width="1"></path></svg>