<svg xmlns="http://www.w3.org/2000/svg" fill="none" viewBox="0 0 24 24" height="24" width="24"><path fill="#c9f7ca" d="M13.91 11.778a0.944 0.944 0 0 0 1.36 -0.051 0.94 0.94 0 0 0 -0.111 -1.357L12 6.881l-3.153 3.5a0.942 0.942 0 1 0 1.263 1.4l-2.66 3.204A0.942 0.942 0 0 0 8.8 16.3l-2.021 2.582a0.942 0.942 0 0 0 0.664 1.609h9.116a0.944 0.944 0 0 0 0.663 -1.612l-2.056 -2.564a0.943 0.943 0 0 0 1.326 -1.339l-2.582 -3.198Z" stroke-width="1"></path><path fill="#78eb7b" d="M15.167 16.317a0.942 0.942 0 0 0 1.325 -1.339l-0.434 -0.538a7.97 7.97 0 0 1 -8.143 -0.015l-0.465 0.56A0.942 0.942 0 1 0 8.8 16.3l-2.021 2.582a0.942 0.942 0 0 0 0.664 1.609h9.116a0.944 0.944 0 0 0 0.663 -1.612l-2.055 -2.562Z" stroke-width="1"></path><path fill="#c9f7ca" d="M5.788 3.741a0.622 0.622 0 1 0 0.825 -0.931L4.5 0.507l-2.131 2.3a0.622 0.622 0 1 0 0.833 0.923L1.523 5.858a0.622 0.622 0 1 0 0.889 0.869l-1.333 1.7a0.622 0.622 0 0 0 0.439 1.062h5.965a0.622 0.622 0 0 0 0.437 -1.06l-1.3 -1.692a0.622 0.622 0 0 0 0.875 -0.884L5.788 3.741Z" stroke-width="1"></path><path fill="#78eb7b" d="M6.618 6.737a0.622 0.622 0 0 0 0.875 -0.884l-0.323 -0.4c-0.84 0.378 -1.75 0.574 -2.67 0.575a6.507 6.507 0 0 1 -2.66 -0.57l-0.317 0.4a0.622 0.622 0 1 0 0.889 0.869l-1.333 1.7a0.622 0.622 0 0 0 0.439 1.062h5.965a0.622 0.622 0 0 0 0.437 -1.06L6.618 6.737Z" stroke-width="1"></path><path stroke="#191919" stroke-linecap="round" stroke-linejoin="round" d="M13.91 11.778a0.944 0.944 0 0 0 1.36 -0.051 0.94 0.94 0 0 0 -0.111 -1.357L12 6.881l-3.153 3.5a0.942 0.942 0 1 0 1.263 1.4l-2.66 3.204A0.942 0.942 0 0 0 8.8 16.3l-2.021 2.582a0.942 0.942 0 0 0 0.664 1.609h9.116a0.944 0.944 0 0 0 0.663 -1.612l-2.056 -2.564a0.943 0.943 0 0 0 1.326 -1.339l-2.582 -3.198Z" stroke-width="1"></path><path fill="#c77f67" d="M10.5 23.493v-3h3v3" stroke-width="1"></path><path stroke="#191919" stroke-linecap="round" stroke-linejoin="round" d="M10.5 23.493v-3h3v3" stroke-width="1"></path><path stroke="#191919" stroke-linecap="round" stroke-linejoin="round" d="M5.788 3.741a0.622 0.622 0 1 0 0.825 -0.931L4.5 0.507l-2.131 2.3a0.622 0.622 0 1 0 0.833 0.923L1.523 5.858a0.622 0.622 0 1 0 0.889 0.869l-1.333 1.7a0.622 0.622 0 0 0 0.439 1.062h5.965a0.622 0.622 0 0 0 0.437 -1.06l-1.3 -1.692a0.622 0.622 0 0 0 0.875 -0.884L5.788 3.741Z" stroke-width="1"></path><path fill="#c9f7ca" d="M20.788 3.741a0.622 0.622 0 1 0 0.825 -0.931L19.5 0.507l-2.132 2.3a0.622 0.622 0 1 0 0.833 0.923l-1.678 2.128a0.621 0.621 0 1 0 0.889 0.869l-1.333 1.7a0.622 0.622 0 0 0 0.44 1.062h5.964a0.623 0.623 0 0 0 0.438 -1.064l-1.3 -1.692a0.622 0.622 0 0 0 0.875 -0.884l-1.708 -2.108Z" stroke-width="1"></path><path fill="#78eb7b" d="M21.618 6.737a0.622 0.622 0 0 0 0.875 -0.884l-0.322 -0.4c-0.84 0.379 -1.75 0.575 -2.671 0.575a6.507 6.507 0 0 1 -2.66 -0.57l-0.317 0.4a0.621 0.621 0 1 0 0.889 0.869l-1.333 1.7a0.622 0.622 0 0 0 0.44 1.062h5.964a0.622 0.622 0 0 0 0.438 -1.064l-1.303 -1.688Z" stroke-width="1"></path><path stroke="#191919" stroke-linecap="round" stroke-linejoin="round" d="M20.788 3.741a0.622 0.622 0 1 0 0.825 -0.931L19.5 0.507l-2.132 2.3a0.622 0.622 0 1 0 0.833 0.923l-1.678 2.128a0.621 0.621 0 1 0 0.889 0.869l-1.333 1.7a0.622 0.622 0 0 0 0.44 1.062h5.964a0.623 0.623 0 0 0 0.438 -1.064l-1.3 -1.692a0.622 0.622 0 0 0 0.875 -0.884l-1.708 -2.108Z" stroke-width="1"></path><path stroke="#191919" stroke-linecap="round" stroke-linejoin="round" d="M4.5 9.493v1.514" stroke-width="1"></path><path stroke="#191919" stroke-linecap="round" stroke-linejoin="round" d="M19.5 9.493v1.514" stroke-width="1"></path></svg>